<svg width="256" height="177" viewBox="0 0 256 177" fill="none" xmlns="http://www.w3.org/2000/svg">
<path d="M70.1381 25.217C93.0257 1.84522 130.201 -3.78964 159.499 11.6721C166.298 15.2522 171.345 18.9163 176.868 24.2736C182.694 29.9639 187.493 36.2358 187.964 38.8469C188.407 41.1508 188.268 41.3189 177.702 51.8361C172.264 57.1928 167.52 61.7709 167.131 61.9953C166.159 62.4963 164.386 62.2187 163.524 61.4143C163.136 61.0522 162.332 59.9438 161.722 58.8869C159.365 54.835 155.702 50.5307 151.955 47.3967C141.108 38.291 128.18 35.2665 114.116 38.5979C112.478 38.9855 110.899 39.4577 110.592 39.6516C110.289 39.8454 109.594 40.0939 109.038 40.2072C107.927 40.4011 104.071 42.3177 102.16 43.594C101.494 44.0364 100.358 44.7856 99.6088 45.2317C98.8888 45.7034 97.277 46.9548 96.0014 48.008C90.0913 53.0583 85.402 60.2223 82.9057 67.9934C81.6009 71.9903 81.1033 74.8754 80.7963 79.8449C80.5185 84.2844 80.241 85.1481 78.7426 86.2854C77.9933 86.8412 77.5215 86.8672 68.2016 87.0647C56.7724 87.2585 56.1325 87.3679 51.2494 89.8108C48.9761 90.9773 44.7036 94.4474 42.8979 96.6379C41.0667 98.8577 38.8483 103.247 38.0697 106.161C36.2095 113.018 36.9326 119.568 40.1488 125.868C44.173 133.669 51.8562 138.639 61.1801 139.469C62.9824 139.637 78.6296 139.746 99.2983 139.746C137.945 139.746 135.282 139.637 136.364 141.41C136.89 142.299 136.945 144.216 136.502 145.105C136.024 146.026 108.563 173.64 107.401 174.361L106.429 175L83.5414 174.971C70.9463 174.942 59.4581 174.802 58.018 174.693L58.0111 174.696C51.0192 174.086 42.4741 171.672 35.9828 168.505C29.5464 165.342 24.3301 161.564 19.2533 156.375C14.1473 151.157 11.2087 146.991 8.10197 140.551C-1.85775 120.01 0.500134 96.2505 14.2611 77.8742C22.6968 66.6329 34.9844 58.9418 48.8549 56.2209L52.602 55.4719L53.852 51.7522C57.4302 41.2604 62.4517 33.0721 70.1381 25.217ZM170.955 74.0891C173.452 74.005 189.877 73.9502 207.41 74.0051L239.314 74.0891L241.116 74.6994C250.688 77.9761 255.348 88.1354 251.244 96.7951C250.246 98.9308 248.246 101.099 238.897 110.117C226.134 122.416 209.073 139.179 209.157 139.319C209.186 139.373 215.925 139.513 224.138 139.568C240.45 139.736 240.451 139.736 243.89 141.454C246.47 142.76 249.884 146.201 251.185 148.809C252.629 151.723 253.155 154.444 252.961 157.885C252.713 162.548 251.046 166.381 247.83 169.628C245.498 171.987 243.919 173.014 240.699 174.206L239.036 174.846L183.549 174.902C136.301 174.956 127.924 174.901 127.174 174.569V174.583C126.063 174.111 125.15 172.667 125.15 171.446C125.15 170.725 125.454 170.194 126.62 168.973C127.402 168.11 140.825 154.621 156.444 138.993C172.036 123.367 184.795 110.458 184.795 110.319C184.784 110.151 176.602 110.041 162.131 110.041C136.831 110.041 138.217 110.15 136.886 108.124C136.137 107.012 136.027 105.155 136.637 103.959C136.86 103.542 143.655 96.7148 151.729 88.7463L166.404 74.2834L170.955 74.0891Z" fill="#0095FF"/>
</svg>
